<mxfile host="65bd71144e">
    <diagram name="Page-1" id="fHiTRqhxNtO9Ifgd2nC-">
        <mxGraphModel dx="1005" dy="563" grid="1" gridSize="10" guides="1" tooltips="1" connect="1" arrows="1" fold="1" page="1" pageScale="1" pageWidth="850" pageHeight="1100" math="0" shadow="0">
            <root>
                <mxCell id="0"/>
                <mxCell id="1" parent="0"/>
                <mxCell id="GEy-7IUFo_Hp36R-oKfD-1" value="USER" style="swimlane;fontStyle=0;childLayout=stackLayout;horizontal=1;startSize=26;fillColor=#a20025;horizontalStack=0;resizeParent=1;resizeParentMax=0;resizeLast=0;collapsible=1;marginBottom=0;rotation=0;strokeColor=#6F0000;fontColor=#ffffff;" parent="1" vertex="1">
                    <mxGeometry x="360" y="220" width="200" height="104" relative="1" as="geometry">
                        <mxRectangle x="360" y="220" width="70" height="30" as="alternateBounds"/>
                        <mxPoint x="40" y="320" as="offset"/>
                    </mxGeometry>
                </mxCell>
                <mxCell id="GEy-7IUFo_Hp36R-oKfD-2" value="ID unique" style="text;strokeColor=none;fillColor=none;align=left;verticalAlign=top;spacingLeft=4;spacingRight=4;overflow=hidden;rotatable=0;points=[[0,0.5],[1,0.5]];portConstraint=eastwest;" parent="GEy-7IUFo_Hp36R-oKfD-1" vertex="1">
                    <mxGeometry y="26" width="200" height="26" as="geometry"/>
                </mxCell>
                <mxCell id="GEy-7IUFo_Hp36R-oKfD-3" value="USERNAME  unique" style="text;strokeColor=none;fillColor=none;align=left;verticalAlign=top;spacingLeft=4;spacingRight=4;overflow=hidden;rotatable=0;points=[[0,0.5],[1,0.5]];portConstraint=eastwest;" parent="GEy-7IUFo_Hp36R-oKfD-1" vertex="1">
                    <mxGeometry y="52" width="200" height="26" as="geometry"/>
                </mxCell>
                <mxCell id="GEy-7IUFo_Hp36R-oKfD-4" value="PASSWORD" style="text;strokeColor=none;fillColor=none;align=left;verticalAlign=top;spacingLeft=4;spacingRight=4;overflow=hidden;rotatable=0;points=[[0,0.5],[1,0.5]];portConstraint=eastwest;" parent="GEy-7IUFo_Hp36R-oKfD-1" vertex="1">
                    <mxGeometry y="78" width="200" height="26" as="geometry"/>
                </mxCell>
                <mxCell id="GEy-7IUFo_Hp36R-oKfD-5" value="USER PROFILE" style="swimlane;fontStyle=0;childLayout=stackLayout;horizontal=1;startSize=26;fillColor=#a20025;horizontalStack=0;resizeParent=1;resizeParentMax=0;resizeLast=0;collapsible=1;marginBottom=0;strokeColor=#6F0000;fontColor=#ffffff;" parent="1" vertex="1">
                    <mxGeometry x="40" y="40" width="200" height="208" as="geometry"/>
                </mxCell>
                <mxCell id="GEy-7IUFo_Hp36R-oKfD-6" value="ID unique" style="text;strokeColor=none;fillColor=none;align=left;verticalAlign=top;spacingLeft=4;spacingRight=4;overflow=hidden;rotatable=0;points=[[0,0.5],[1,0.5]];portConstraint=eastwest;" parent="GEy-7IUFo_Hp36R-oKfD-5" vertex="1">
                    <mxGeometry y="26" width="200" height="26" as="geometry"/>
                </mxCell>
                <mxCell id="GEy-7IUFo_Hp36R-oKfD-7" value="USER" style="text;strokeColor=none;fillColor=none;align=left;verticalAlign=top;spacingLeft=4;spacingRight=4;overflow=hidden;rotatable=0;points=[[0,0.5],[1,0.5]];portConstraint=eastwest;" parent="GEy-7IUFo_Hp36R-oKfD-5" vertex="1">
                    <mxGeometry y="52" width="200" height="26" as="geometry"/>
                </mxCell>
                <mxCell id="GEy-7IUFo_Hp36R-oKfD-8" value="FIRST NAME    str" style="text;strokeColor=none;fillColor=none;align=left;verticalAlign=top;spacingLeft=4;spacingRight=4;overflow=hidden;rotatable=0;points=[[0,0.5],[1,0.5]];portConstraint=eastwest;" parent="GEy-7IUFo_Hp36R-oKfD-5" vertex="1">
                    <mxGeometry y="78" width="200" height="26" as="geometry"/>
                </mxCell>
                <mxCell id="GEy-7IUFo_Hp36R-oKfD-10" value="MIDDLE NAME    str" style="text;strokeColor=none;fillColor=none;align=left;verticalAlign=top;spacingLeft=4;spacingRight=4;overflow=hidden;rotatable=0;points=[[0,0.5],[1,0.5]];portConstraint=eastwest;" parent="GEy-7IUFo_Hp36R-oKfD-5" vertex="1">
                    <mxGeometry y="104" width="200" height="26" as="geometry"/>
                </mxCell>
                <mxCell id="GEy-7IUFo_Hp36R-oKfD-9" value="LAST NAME    str&#10;" style="text;strokeColor=none;fillColor=none;align=left;verticalAlign=top;spacingLeft=4;spacingRight=4;overflow=hidden;rotatable=0;points=[[0,0.5],[1,0.5]];portConstraint=eastwest;" parent="GEy-7IUFo_Hp36R-oKfD-5" vertex="1">
                    <mxGeometry y="130" width="200" height="26" as="geometry"/>
                </mxCell>
                <mxCell id="GEy-7IUFo_Hp36R-oKfD-11" value="AVATAR    img" style="text;strokeColor=none;fillColor=none;align=left;verticalAlign=top;spacingLeft=4;spacingRight=4;overflow=hidden;rotatable=0;points=[[0,0.5],[1,0.5]];portConstraint=eastwest;" parent="GEy-7IUFo_Hp36R-oKfD-5" vertex="1">
                    <mxGeometry y="156" width="200" height="26" as="geometry"/>
                </mxCell>
                <mxCell id="GEy-7IUFo_Hp36R-oKfD-12" value="EMAIL ADDRESS" style="text;strokeColor=none;fillColor=none;align=left;verticalAlign=top;spacingLeft=4;spacingRight=4;overflow=hidden;rotatable=0;points=[[0,0.5],[1,0.5]];portConstraint=eastwest;" parent="GEy-7IUFo_Hp36R-oKfD-5" vertex="1">
                    <mxGeometry y="182" width="200" height="26" as="geometry"/>
                </mxCell>
                <mxCell id="GEy-7IUFo_Hp36R-oKfD-13" value="HOTEL" style="swimlane;fontStyle=0;childLayout=stackLayout;horizontal=1;startSize=26;fillColor=#0050ef;horizontalStack=0;resizeParent=1;resizeParentMax=0;resizeLast=0;collapsible=1;marginBottom=0;aspect=fixed;strokeColor=#001DBC;fontColor=#ffffff;" parent="1" vertex="1">
                    <mxGeometry x="640" y="300" width="173" height="260" as="geometry"/>
                </mxCell>
                <mxCell id="GEy-7IUFo_Hp36R-oKfD-14" value="ID    unique" style="text;strokeColor=none;fillColor=none;align=left;verticalAlign=top;spacingLeft=4;spacingRight=4;overflow=hidden;rotatable=0;points=[[0,0.5],[1,0.5]];portConstraint=eastwest;" parent="GEy-7IUFo_Hp36R-oKfD-13" vertex="1">
                    <mxGeometry y="26" width="173" height="26" as="geometry"/>
                </mxCell>
                <mxCell id="GEy-7IUFo_Hp36R-oKfD-15" value="NAME     str" style="text;strokeColor=none;fillColor=none;align=left;verticalAlign=top;spacingLeft=4;spacingRight=4;overflow=hidden;rotatable=0;points=[[0,0.5],[1,0.5]];portConstraint=eastwest;" parent="GEy-7IUFo_Hp36R-oKfD-13" vertex="1">
                    <mxGeometry y="52" width="173" height="26" as="geometry"/>
                </mxCell>
                <mxCell id="GEy-7IUFo_Hp36R-oKfD-16" value="CITY    ForeignKey" style="text;strokeColor=none;fillColor=none;align=left;verticalAlign=top;spacingLeft=4;spacingRight=4;overflow=hidden;rotatable=0;points=[[0,0.5],[1,0.5]];portConstraint=eastwest;" parent="GEy-7IUFo_Hp36R-oKfD-13" vertex="1">
                    <mxGeometry y="78" width="173" height="26" as="geometry"/>
                </mxCell>
                <mxCell id="GEy-7IUFo_Hp36R-oKfD-17" value="START COUNT    int" style="text;strokeColor=none;fillColor=none;align=left;verticalAlign=top;spacingLeft=4;spacingRight=4;overflow=hidden;rotatable=0;points=[[0,0.5],[1,0.5]];portConstraint=eastwest;" parent="GEy-7IUFo_Hp36R-oKfD-13" vertex="1">
                    <mxGeometry y="104" width="173" height="26" as="geometry"/>
                </mxCell>
                <mxCell id="GEy-7IUFo_Hp36R-oKfD-18" value="BOOKING RATING    float" style="text;strokeColor=none;fillColor=none;align=left;verticalAlign=top;spacingLeft=4;spacingRight=4;overflow=hidden;rotatable=0;points=[[0,0.5],[1,0.5]];portConstraint=eastwest;" parent="GEy-7IUFo_Hp36R-oKfD-13" vertex="1">
                    <mxGeometry y="130" width="173" height="26" as="geometry"/>
                </mxCell>
                <mxCell id="GEy-7IUFo_Hp36R-oKfD-19" value="TRIPATVISOR RATING    float" style="text;strokeColor=none;fillColor=none;align=left;verticalAlign=top;spacingLeft=4;spacingRight=4;overflow=hidden;rotatable=0;points=[[0,0.5],[1,0.5]];portConstraint=eastwest;" parent="GEy-7IUFo_Hp36R-oKfD-13" vertex="1">
                    <mxGeometry y="156" width="173" height="26" as="geometry"/>
                </mxCell>
                <mxCell id="GEy-7IUFo_Hp36R-oKfD-20" value="POINT    float" style="text;strokeColor=none;fillColor=none;align=left;verticalAlign=top;spacingLeft=4;spacingRight=4;overflow=hidden;rotatable=0;points=[[0,0.5],[1,0.5]];portConstraint=eastwest;" parent="GEy-7IUFo_Hp36R-oKfD-13" vertex="1">
                    <mxGeometry y="182" width="173" height="26" as="geometry"/>
                </mxCell>
                <mxCell id="GEy-7IUFo_Hp36R-oKfD-21" value="MIN PRICE    decimal" style="text;strokeColor=none;fillColor=none;align=left;verticalAlign=top;spacingLeft=4;spacingRight=4;overflow=hidden;rotatable=0;points=[[0,0.5],[1,0.5]];portConstraint=eastwest;" parent="GEy-7IUFo_Hp36R-oKfD-13" vertex="1">
                    <mxGeometry y="208" width="173" height="26" as="geometry"/>
                </mxCell>
                <mxCell id="GEy-7IUFo_Hp36R-oKfD-22" value="LINK    str" style="text;strokeColor=none;fillColor=none;align=left;verticalAlign=top;spacingLeft=4;spacingRight=4;overflow=hidden;rotatable=0;points=[[0,0.5],[1,0.5]];portConstraint=eastwest;" parent="GEy-7IUFo_Hp36R-oKfD-13" vertex="1">
                    <mxGeometry y="234" width="173" height="26" as="geometry"/>
                </mxCell>
                <mxCell id="GEy-7IUFo_Hp36R-oKfD-23" value="REGION" style="swimlane;fontStyle=0;childLayout=stackLayout;horizontal=1;startSize=26;fillColor=#a0522d;horizontalStack=0;resizeParent=1;resizeParentMax=0;resizeLast=0;collapsible=1;marginBottom=0;strokeColor=#6D1F00;fontColor=#ffffff;" parent="1" vertex="1">
                    <mxGeometry x="640" y="40" width="170" height="78" as="geometry"/>
                </mxCell>
                <mxCell id="GEy-7IUFo_Hp36R-oKfD-24" value="ID unique" style="text;strokeColor=none;fillColor=none;align=left;verticalAlign=top;spacingLeft=4;spacingRight=4;overflow=hidden;rotatable=0;points=[[0,0.5],[1,0.5]];portConstraint=eastwest;" parent="GEy-7IUFo_Hp36R-oKfD-23" vertex="1">
                    <mxGeometry y="26" width="170" height="26" as="geometry"/>
                </mxCell>
                <mxCell id="GEy-7IUFo_Hp36R-oKfD-25" value="TITLE    str" style="text;strokeColor=none;fillColor=none;align=left;verticalAlign=top;spacingLeft=4;spacingRight=4;overflow=hidden;rotatable=0;points=[[0,0.5],[1,0.5]];portConstraint=eastwest;" parent="GEy-7IUFo_Hp36R-oKfD-23" vertex="1">
                    <mxGeometry y="52" width="170" height="26" as="geometry"/>
                </mxCell>
                <mxCell id="MmmVJCSP6v6URZGPQkiL-1" value="CITY" style="swimlane;fontStyle=0;childLayout=stackLayout;horizontal=1;startSize=26;fillColor=#a0522d;horizontalStack=0;resizeParent=1;resizeParentMax=0;resizeLast=0;collapsible=1;marginBottom=0;strokeColor=#6D1F00;fontColor=#ffffff;" parent="1" vertex="1">
                    <mxGeometry x="640" y="160" width="170" height="104" as="geometry"/>
                </mxCell>
                <mxCell id="MmmVJCSP6v6URZGPQkiL-2" value="ID    unique" style="text;strokeColor=none;fillColor=none;align=left;verticalAlign=top;spacingLeft=4;spacingRight=4;overflow=hidden;rotatable=0;points=[[0,0.5],[1,0.5]];portConstraint=eastwest;" parent="MmmVJCSP6v6URZGPQkiL-1" vertex="1">
                    <mxGeometry y="26" width="170" height="26" as="geometry"/>
                </mxCell>
                <mxCell id="MmmVJCSP6v6URZGPQkiL-3" value="REGION    foreignkey" style="text;strokeColor=none;fillColor=none;align=left;verticalAlign=top;spacingLeft=4;spacingRight=4;overflow=hidden;rotatable=0;points=[[0,0.5],[1,0.5]];portConstraint=eastwest;" parent="MmmVJCSP6v6URZGPQkiL-1" vertex="1">
                    <mxGeometry y="52" width="170" height="26" as="geometry"/>
                </mxCell>
                <mxCell id="MmmVJCSP6v6URZGPQkiL-4" value="TITLE    str" style="text;strokeColor=none;fillColor=none;align=left;verticalAlign=top;spacingLeft=4;spacingRight=4;overflow=hidden;rotatable=0;points=[[0,0.5],[1,0.5]];portConstraint=eastwest;" parent="MmmVJCSP6v6URZGPQkiL-1" vertex="1">
                    <mxGeometry y="78" width="170" height="26" as="geometry"/>
                </mxCell>
                <mxCell id="MmmVJCSP6v6URZGPQkiL-7" value="TOUR" style="swimlane;fontStyle=0;childLayout=stackLayout;horizontal=1;startSize=26;fillColor=#f0a30a;horizontalStack=0;resizeParent=1;resizeParentMax=0;resizeLast=0;collapsible=1;marginBottom=0;strokeColor=#BD7000;fontColor=#000000;" parent="1" vertex="1">
                    <mxGeometry x="320" y="160" width="200" height="260" as="geometry"/>
                </mxCell>
                <mxCell id="MmmVJCSP6v6URZGPQkiL-8" value="ID    unique" style="text;strokeColor=none;fillColor=none;align=left;verticalAlign=top;spacingLeft=4;spacingRight=4;overflow=hidden;rotatable=0;points=[[0,0.5],[1,0.5]];portConstraint=eastwest;" parent="MmmVJCSP6v6URZGPQkiL-7" vertex="1">
                    <mxGeometry y="26" width="200" height="26" as="geometry"/>
                </mxCell>
                <mxCell id="MmmVJCSP6v6URZGPQkiL-20" value="CATEGORY    foreignkey" style="text;strokeColor=none;fillColor=none;align=left;verticalAlign=top;spacingLeft=4;spacingRight=4;overflow=hidden;rotatable=0;points=[[0,0.5],[1,0.5]];portConstraint=eastwest;" parent="MmmVJCSP6v6URZGPQkiL-7" vertex="1">
                    <mxGeometry y="52" width="200" height="26" as="geometry"/>
                </mxCell>
                <mxCell id="MmmVJCSP6v6URZGPQkiL-9" value="TITLE    str" style="text;strokeColor=none;fillColor=none;align=left;verticalAlign=top;spacingLeft=4;spacingRight=4;overflow=hidden;rotatable=0;points=[[0,0.5],[1,0.5]];portConstraint=eastwest;" parent="MmmVJCSP6v6URZGPQkiL-7" vertex="1">
                    <mxGeometry y="78" width="200" height="26" as="geometry"/>
                </mxCell>
                <mxCell id="MmmVJCSP6v6URZGPQkiL-10" value="DESCRIPTION    str" style="text;strokeColor=none;fillColor=none;align=left;verticalAlign=top;spacingLeft=4;spacingRight=4;overflow=hidden;rotatable=0;points=[[0,0.5],[1,0.5]];portConstraint=eastwest;" parent="MmmVJCSP6v6URZGPQkiL-7" vertex="1">
                    <mxGeometry y="104" width="200" height="26" as="geometry"/>
                </mxCell>
                <mxCell id="MmmVJCSP6v6URZGPQkiL-11" value="DEPARTURE DATE    datetime" style="text;strokeColor=none;fillColor=none;align=left;verticalAlign=top;spacingLeft=4;spacingRight=4;overflow=hidden;rotatable=0;points=[[0,0.5],[1,0.5]];portConstraint=eastwest;" parent="MmmVJCSP6v6URZGPQkiL-7" vertex="1">
                    <mxGeometry y="130" width="200" height="26" as="geometry"/>
                </mxCell>
                <mxCell id="MmmVJCSP6v6URZGPQkiL-12" value="CITY    foreignkey" style="text;strokeColor=none;fillColor=none;align=left;verticalAlign=top;spacingLeft=4;spacingRight=4;overflow=hidden;rotatable=0;points=[[0,0.5],[1,0.5]];portConstraint=eastwest;" parent="MmmVJCSP6v6URZGPQkiL-7" vertex="1">
                    <mxGeometry y="156" width="200" height="26" as="geometry"/>
                </mxCell>
                <mxCell id="MmmVJCSP6v6URZGPQkiL-13" value="NIGHT    int" style="text;strokeColor=none;fillColor=none;align=left;verticalAlign=top;spacingLeft=4;spacingRight=4;overflow=hidden;rotatable=0;points=[[0,0.5],[1,0.5]];portConstraint=eastwest;" parent="MmmVJCSP6v6URZGPQkiL-7" vertex="1">
                    <mxGeometry y="182" width="200" height="26" as="geometry"/>
                </mxCell>
                <mxCell id="MmmVJCSP6v6URZGPQkiL-14" value="MIN PRICE    decimal" style="text;strokeColor=none;fillColor=none;align=left;verticalAlign=top;spacingLeft=4;spacingRight=4;overflow=hidden;rotatable=0;points=[[0,0.5],[1,0.5]];portConstraint=eastwest;" parent="MmmVJCSP6v6URZGPQkiL-7" vertex="1">
                    <mxGeometry y="208" width="200" height="26" as="geometry"/>
                </mxCell>
                <mxCell id="MmmVJCSP6v6URZGPQkiL-15" value="SALE     decimal" style="text;strokeColor=none;fillColor=none;align=left;verticalAlign=top;spacingLeft=4;spacingRight=4;overflow=hidden;rotatable=0;points=[[0,0.5],[1,0.5]];portConstraint=eastwest;" parent="MmmVJCSP6v6URZGPQkiL-7" vertex="1">
                    <mxGeometry y="234" width="200" height="26" as="geometry"/>
                </mxCell>
                <mxCell id="MmmVJCSP6v6URZGPQkiL-16" value="TOUR CATEGORY" style="swimlane;fontStyle=0;childLayout=stackLayout;horizontal=1;startSize=26;fillColor=#f0a30a;horizontalStack=0;resizeParent=1;resizeParentMax=0;resizeLast=0;collapsible=1;marginBottom=0;strokeColor=#BD7000;fontColor=#000000;" parent="1" vertex="1">
                    <mxGeometry x="320" y="40" width="200" height="78" as="geometry"/>
                </mxCell>
                <mxCell id="MmmVJCSP6v6URZGPQkiL-17" value="ID unique" style="text;strokeColor=none;fillColor=none;align=left;verticalAlign=top;spacingLeft=4;spacingRight=4;overflow=hidden;rotatable=0;points=[[0,0.5],[1,0.5]];portConstraint=eastwest;" parent="MmmVJCSP6v6URZGPQkiL-16" vertex="1">
                    <mxGeometry y="26" width="200" height="26" as="geometry"/>
                </mxCell>
                <mxCell id="MmmVJCSP6v6URZGPQkiL-18" value="TITLE    str" style="text;strokeColor=none;fillColor=none;align=left;verticalAlign=top;spacingLeft=4;spacingRight=4;overflow=hidden;rotatable=0;points=[[0,0.5],[1,0.5]];portConstraint=eastwest;" parent="MmmVJCSP6v6URZGPQkiL-16" vertex="1">
                    <mxGeometry y="52" width="200" height="26" as="geometry"/>
                </mxCell>
                <mxCell id="MmmVJCSP6v6URZGPQkiL-23" value="TOUR IMAGE" style="swimlane;fontStyle=0;childLayout=stackLayout;horizontal=1;startSize=26;fillColor=#f0a30a;horizontalStack=0;resizeParent=1;resizeParentMax=0;resizeLast=0;collapsible=1;marginBottom=0;strokeColor=#BD7000;fontColor=#000000;" parent="1" vertex="1">
                    <mxGeometry x="320" y="480" width="200" height="104" as="geometry"/>
                </mxCell>
                <mxCell id="MmmVJCSP6v6URZGPQkiL-24" value="ID unique" style="text;align=left;verticalAlign=top;spacingLeft=4;spacingRight=4;overflow=hidden;rotatable=0;points=[[0,0.5],[1,0.5]];portConstraint=eastwest;" parent="MmmVJCSP6v6URZGPQkiL-23" vertex="1">
                    <mxGeometry y="26" width="200" height="26" as="geometry"/>
                </mxCell>
                <mxCell id="MmmVJCSP6v6URZGPQkiL-25" value="TOUR    foreignkey" style="text;strokeColor=none;fillColor=none;align=left;verticalAlign=top;spacingLeft=4;spacingRight=4;overflow=hidden;rotatable=0;points=[[0,0.5],[1,0.5]];portConstraint=eastwest;" parent="MmmVJCSP6v6URZGPQkiL-23" vertex="1">
                    <mxGeometry y="52" width="200" height="26" as="geometry"/>
                </mxCell>
                <mxCell id="MmmVJCSP6v6URZGPQkiL-26" value="IMAGE    img" style="text;strokeColor=none;fillColor=none;align=left;verticalAlign=top;spacingLeft=4;spacingRight=4;overflow=hidden;rotatable=0;points=[[0,0.5],[1,0.5]];portConstraint=eastwest;" parent="MmmVJCSP6v6URZGPQkiL-23" vertex="1">
                    <mxGeometry y="78" width="200" height="26" as="geometry"/>
                </mxCell>
                <mxCell id="nRLeO3kvEKRucynqbo7M-2" value="POINST" style="swimlane;fontStyle=0;childLayout=stackLayout;horizontal=1;startSize=26;fillColor=#d80073;horizontalStack=0;resizeParent=1;resizeParentMax=0;resizeLast=0;collapsible=1;marginBottom=0;fontColor=#ffffff;strokeColor=#A50040;" parent="1" vertex="1">
                    <mxGeometry x="40" y="480" width="200" height="104" as="geometry"/>
                </mxCell>
                <mxCell id="nRLeO3kvEKRucynqbo7M-3" value="ID    unique" style="text;strokeColor=none;fillColor=none;align=left;verticalAlign=top;spacingLeft=4;spacingRight=4;overflow=hidden;rotatable=0;points=[[0,0.5],[1,0.5]];portConstraint=eastwest;" parent="nRLeO3kvEKRucynqbo7M-2" vertex="1">
                    <mxGeometry y="26" width="200" height="26" as="geometry"/>
                </mxCell>
                <mxCell id="nRLeO3kvEKRucynqbo7M-4" value="USER    OneToOneField" style="text;strokeColor=none;fillColor=none;align=left;verticalAlign=top;spacingLeft=4;spacingRight=4;overflow=hidden;rotatable=0;points=[[0,0.5],[1,0.5]];portConstraint=eastwest;" parent="nRLeO3kvEKRucynqbo7M-2" vertex="1">
                    <mxGeometry y="52" width="200" height="26" as="geometry"/>
                </mxCell>
                <mxCell id="nRLeO3kvEKRucynqbo7M-5" value="POINT COUNT    decimal" style="text;strokeColor=none;fillColor=none;align=left;verticalAlign=top;spacingLeft=4;spacingRight=4;overflow=hidden;rotatable=0;points=[[0,0.5],[1,0.5]];portConstraint=eastwest;" parent="nRLeO3kvEKRucynqbo7M-2" vertex="1">
                    <mxGeometry y="78" width="200" height="26" as="geometry"/>
                </mxCell>
                <mxCell id="nRLeO3kvEKRucynqbo7M-6" value="POINT    EARNED" style="swimlane;fontStyle=0;childLayout=stackLayout;horizontal=1;startSize=26;fillColor=#d80073;horizontalStack=0;resizeParent=1;resizeParentMax=0;resizeLast=0;collapsible=1;marginBottom=0;fontColor=#ffffff;strokeColor=#A50040;" parent="1" vertex="1">
                    <mxGeometry x="40" y="640" width="200" height="130" as="geometry"/>
                </mxCell>
                <mxCell id="nRLeO3kvEKRucynqbo7M-7" value="ID    unique" style="text;strokeColor=none;fillColor=none;align=left;verticalAlign=top;spacingLeft=4;spacingRight=4;overflow=hidden;rotatable=0;points=[[0,0.5],[1,0.5]];portConstraint=eastwest;" parent="nRLeO3kvEKRucynqbo7M-6" vertex="1">
                    <mxGeometry y="26" width="200" height="26" as="geometry"/>
                </mxCell>
                <mxCell id="nRLeO3kvEKRucynqbo7M-8" value="USER    ForeignKey" style="text;strokeColor=none;fillColor=none;align=left;verticalAlign=top;spacingLeft=4;spacingRight=4;overflow=hidden;rotatable=0;points=[[0,0.5],[1,0.5]];portConstraint=eastwest;" parent="nRLeO3kvEKRucynqbo7M-6" vertex="1">
                    <mxGeometry y="52" width="200" height="26" as="geometry"/>
                </mxCell>
                <mxCell id="nRLeO3kvEKRucynqbo7M-9" value="POINT EARN    decimal" style="text;strokeColor=none;fillColor=none;align=left;verticalAlign=top;spacingLeft=4;spacingRight=4;overflow=hidden;rotatable=0;points=[[0,0.5],[1,0.5]];portConstraint=eastwest;" parent="nRLeO3kvEKRucynqbo7M-6" vertex="1">
                    <mxGeometry y="78" width="200" height="26" as="geometry"/>
                </mxCell>
                <mxCell id="nRLeO3kvEKRucynqbo7M-10" value="DESCRIPTION    str" style="text;strokeColor=none;fillColor=none;align=left;verticalAlign=top;spacingLeft=4;spacingRight=4;overflow=hidden;rotatable=0;points=[[0,0.5],[1,0.5]];portConstraint=eastwest;" parent="nRLeO3kvEKRucynqbo7M-6" vertex="1">
                    <mxGeometry y="104" width="200" height="26" as="geometry"/>
                </mxCell>
                <mxCell id="nRLeO3kvEKRucynqbo7M-11" value="POINT    SPENT" style="swimlane;fontStyle=0;childLayout=stackLayout;horizontal=1;startSize=26;fillColor=#d80073;horizontalStack=0;resizeParent=1;resizeParentMax=0;resizeLast=0;collapsible=1;marginBottom=0;fontColor=#ffffff;strokeColor=#A50040;" parent="1" vertex="1">
                    <mxGeometry x="40" y="800" width="200" height="130" as="geometry"/>
                </mxCell>
                <mxCell id="nRLeO3kvEKRucynqbo7M-12" value="ID    unique" style="text;strokeColor=none;fillColor=none;align=left;verticalAlign=top;spacingLeft=4;spacingRight=4;overflow=hidden;rotatable=0;points=[[0,0.5],[1,0.5]];portConstraint=eastwest;" parent="nRLeO3kvEKRucynqbo7M-11" vertex="1">
                    <mxGeometry y="26" width="200" height="26" as="geometry"/>
                </mxCell>
                <mxCell id="nRLeO3kvEKRucynqbo7M-13" value="USER    ForeignKey" style="text;strokeColor=none;fillColor=none;align=left;verticalAlign=top;spacingLeft=4;spacingRight=4;overflow=hidden;rotatable=0;points=[[0,0.5],[1,0.5]];portConstraint=eastwest;" parent="nRLeO3kvEKRucynqbo7M-11" vertex="1">
                    <mxGeometry y="52" width="200" height="26" as="geometry"/>
                </mxCell>
                <mxCell id="nRLeO3kvEKRucynqbo7M-14" value="POINT SPENT    decimal" style="text;strokeColor=none;fillColor=none;align=left;verticalAlign=top;spacingLeft=4;spacingRight=4;overflow=hidden;rotatable=0;points=[[0,0.5],[1,0.5]];portConstraint=eastwest;" parent="nRLeO3kvEKRucynqbo7M-11" vertex="1">
                    <mxGeometry y="78" width="200" height="26" as="geometry"/>
                </mxCell>
                <mxCell id="nRLeO3kvEKRucynqbo7M-15" value="DESCRIPTION    str" style="text;strokeColor=none;fillColor=none;align=left;verticalAlign=top;spacingLeft=4;spacingRight=4;overflow=hidden;rotatable=0;points=[[0,0.5],[1,0.5]];portConstraint=eastwest;" parent="nRLeO3kvEKRucynqbo7M-11" vertex="1">
                    <mxGeometry y="104" width="200" height="26" as="geometry"/>
                </mxCell>
                <mxCell id="nRLeO3kvEKRucynqbo7M-16" value="ORDER" style="swimlane;fontStyle=0;childLayout=stackLayout;horizontal=1;startSize=26;fillColor=#008a00;horizontalStack=0;resizeParent=1;resizeParentMax=0;resizeLast=0;collapsible=1;marginBottom=0;fontColor=#ffffff;strokeColor=#005700;" parent="1" vertex="1">
                    <mxGeometry x="320" y="640" width="200" height="156" as="geometry"/>
                </mxCell>
                <mxCell id="nRLeO3kvEKRucynqbo7M-17" value="ID     unique" style="text;strokeColor=none;fillColor=none;align=left;verticalAlign=top;spacingLeft=4;spacingRight=4;overflow=hidden;rotatable=0;points=[[0,0.5],[1,0.5]];portConstraint=eastwest;" parent="nRLeO3kvEKRucynqbo7M-16" vertex="1">
                    <mxGeometry y="26" width="200" height="26" as="geometry"/>
                </mxCell>
                <mxCell id="nRLeO3kvEKRucynqbo7M-18" value="USER    ForeignKey" style="text;strokeColor=none;fillColor=none;align=left;verticalAlign=top;spacingLeft=4;spacingRight=4;overflow=hidden;rotatable=0;points=[[0,0.5],[1,0.5]];portConstraint=eastwest;" parent="nRLeO3kvEKRucynqbo7M-16" vertex="1">
                    <mxGeometry y="52" width="200" height="26" as="geometry"/>
                </mxCell>
                <mxCell id="nRLeO3kvEKRucynqbo7M-19" value="DATE    DateTime" style="text;strokeColor=none;fillColor=none;align=left;verticalAlign=top;spacingLeft=4;spacingRight=4;overflow=hidden;rotatable=0;points=[[0,0.5],[1,0.5]];portConstraint=eastwest;" parent="nRLeO3kvEKRucynqbo7M-16" vertex="1">
                    <mxGeometry y="78" width="200" height="26" as="geometry"/>
                </mxCell>
                <mxCell id="nRLeO3kvEKRucynqbo7M-20" value="TOUR    ForeignKey" style="text;strokeColor=none;fillColor=none;align=left;verticalAlign=top;spacingLeft=4;spacingRight=4;overflow=hidden;rotatable=0;points=[[0,0.5],[1,0.5]];portConstraint=eastwest;" parent="nRLeO3kvEKRucynqbo7M-16" vertex="1">
                    <mxGeometry y="104" width="200" height="26" as="geometry"/>
                </mxCell>
                <mxCell id="nRLeO3kvEKRucynqbo7M-21" value="PRICE decimal" style="text;strokeColor=none;fillColor=none;align=left;verticalAlign=top;spacingLeft=4;spacingRight=4;overflow=hidden;rotatable=0;points=[[0,0.5],[1,0.5]];portConstraint=eastwest;" parent="nRLeO3kvEKRucynqbo7M-16" vertex="1">
                    <mxGeometry y="130" width="200" height="26" as="geometry"/>
                </mxCell>
                <mxCell id="nRLeO3kvEKRucynqbo7M-22" style="edgeStyle=orthogonalEdgeStyle;rounded=0;orthogonalLoop=1;jettySize=auto;html=1;exitX=0;exitY=0.5;exitDx=0;exitDy=0;entryX=-0.005;entryY=0.046;entryDx=0;entryDy=0;entryPerimeter=0;" parent="1" source="GEy-7IUFo_Hp36R-oKfD-7" target="GEy-7IUFo_Hp36R-oKfD-1" edge="1">
                    <mxGeometry relative="1" as="geometry">
                        <mxPoint x="20" y="310" as="targetPoint"/>
                        <Array as="points">
                            <mxPoint x="20" y="105"/>
                            <mxPoint x="20" y="325"/>
                        </Array>
                    </mxGeometry>
                </mxCell>
                <mxCell id="nRLeO3kvEKRucynqbo7M-24" style="edgeStyle=orthogonalEdgeStyle;rounded=0;orthogonalLoop=1;jettySize=auto;html=1;exitX=0;exitY=0.5;exitDx=0;exitDy=0;" parent="1" source="nRLeO3kvEKRucynqbo7M-8" edge="1">
                    <mxGeometry relative="1" as="geometry">
                        <mxPoint x="40" y="360" as="targetPoint"/>
                        <Array as="points">
                            <mxPoint x="20" y="705"/>
                            <mxPoint x="20" y="360"/>
                            <mxPoint x="38" y="360"/>
                        </Array>
                    </mxGeometry>
                </mxCell>
                <mxCell id="nRLeO3kvEKRucynqbo7M-25" style="edgeStyle=orthogonalEdgeStyle;rounded=0;orthogonalLoop=1;jettySize=auto;html=1;exitX=0;exitY=0.5;exitDx=0;exitDy=0;entryX=0;entryY=0.5;entryDx=0;entryDy=0;" parent="1" source="nRLeO3kvEKRucynqbo7M-4" target="GEy-7IUFo_Hp36R-oKfD-3" edge="1">
                    <mxGeometry relative="1" as="geometry">
                        <Array as="points">
                            <mxPoint x="30" y="545"/>
                            <mxPoint x="30" y="385"/>
                        </Array>
                    </mxGeometry>
                </mxCell>
                <mxCell id="nRLeO3kvEKRucynqbo7M-26" style="edgeStyle=orthogonalEdgeStyle;rounded=0;orthogonalLoop=1;jettySize=auto;html=1;exitX=0;exitY=0.5;exitDx=0;exitDy=0;entryX=-0.001;entryY=0.192;entryDx=0;entryDy=0;entryPerimeter=0;" parent="1" source="nRLeO3kvEKRucynqbo7M-13" target="GEy-7IUFo_Hp36R-oKfD-1" edge="1">
                    <mxGeometry relative="1" as="geometry">
                        <Array as="points">
                            <mxPoint x="10" y="865"/>
                            <mxPoint x="10" y="340"/>
                        </Array>
                    </mxGeometry>
                </mxCell>
                <mxCell id="nRLeO3kvEKRucynqbo7M-27" style="edgeStyle=orthogonalEdgeStyle;rounded=0;orthogonalLoop=1;jettySize=auto;html=1;exitX=0;exitY=0.5;exitDx=0;exitDy=0;entryX=1;entryY=0.096;entryDx=0;entryDy=0;entryPerimeter=0;" parent="1" source="nRLeO3kvEKRucynqbo7M-18" target="GEy-7IUFo_Hp36R-oKfD-1" edge="1">
                    <mxGeometry relative="1" as="geometry">
                        <Array as="points">
                            <mxPoint x="260" y="705"/>
                            <mxPoint x="260" y="330"/>
                        </Array>
                    </mxGeometry>
                </mxCell>
                <mxCell id="nRLeO3kvEKRucynqbo7M-29" style="edgeStyle=orthogonalEdgeStyle;rounded=0;orthogonalLoop=1;jettySize=auto;html=1;exitX=0;exitY=0.5;exitDx=0;exitDy=0;entryX=-0.005;entryY=0.046;entryDx=0;entryDy=0;entryPerimeter=0;" parent="1" source="MmmVJCSP6v6URZGPQkiL-25" target="MmmVJCSP6v6URZGPQkiL-7" edge="1">
                    <mxGeometry relative="1" as="geometry"/>
                </mxCell>
                <mxCell id="nRLeO3kvEKRucynqbo7M-30" style="edgeStyle=orthogonalEdgeStyle;rounded=0;orthogonalLoop=1;jettySize=auto;html=1;exitX=1;exitY=0.5;exitDx=0;exitDy=0;entryX=1.005;entryY=0.152;entryDx=0;entryDy=0;entryPerimeter=0;" parent="1" source="MmmVJCSP6v6URZGPQkiL-20" target="MmmVJCSP6v6URZGPQkiL-16" edge="1">
                    <mxGeometry relative="1" as="geometry"/>
                </mxCell>
                <mxCell id="nRLeO3kvEKRucynqbo7M-31" style="edgeStyle=orthogonalEdgeStyle;rounded=0;orthogonalLoop=1;jettySize=auto;html=1;exitX=1;exitY=0.5;exitDx=0;exitDy=0;entryX=0.002;entryY=0.101;entryDx=0;entryDy=0;entryPerimeter=0;" parent="1" source="MmmVJCSP6v6URZGPQkiL-12" target="MmmVJCSP6v6URZGPQkiL-1" edge="1">
                    <mxGeometry relative="1" as="geometry"/>
                </mxCell>
                <mxCell id="nRLeO3kvEKRucynqbo7M-32" style="edgeStyle=orthogonalEdgeStyle;rounded=0;orthogonalLoop=1;jettySize=auto;html=1;exitX=1;exitY=0.5;exitDx=0;exitDy=0;entryX=0.997;entryY=0.135;entryDx=0;entryDy=0;entryPerimeter=0;" parent="1" source="MmmVJCSP6v6URZGPQkiL-3" target="GEy-7IUFo_Hp36R-oKfD-23" edge="1">
                    <mxGeometry relative="1" as="geometry"/>
                </mxCell>
                <mxCell id="nRLeO3kvEKRucynqbo7M-33" style="edgeStyle=orthogonalEdgeStyle;rounded=0;orthogonalLoop=1;jettySize=auto;html=1;exitX=0;exitY=0.5;exitDx=0;exitDy=0;entryX=-0.002;entryY=0.192;entryDx=0;entryDy=0;entryPerimeter=0;" parent="1" source="GEy-7IUFo_Hp36R-oKfD-16" target="MmmVJCSP6v6URZGPQkiL-1" edge="1">
                    <mxGeometry relative="1" as="geometry"/>
                </mxCell>
                <mxCell id="2" value="HOTEL IMAGE" style="swimlane;fontStyle=0;childLayout=stackLayout;horizontal=1;startSize=26;fillColor=#0050EF;horizontalStack=0;resizeParent=1;resizeParentMax=0;resizeLast=0;collapsible=1;marginBottom=0;strokeColor=#006EAF;fontColor=#ffffff;" vertex="1" parent="1">
                    <mxGeometry x="640" y="600" width="200" height="104" as="geometry"/>
                </mxCell>
                <mxCell id="3" value="ID unique" style="text;align=left;verticalAlign=top;spacingLeft=4;spacingRight=4;overflow=hidden;rotatable=0;points=[[0,0.5],[1,0.5]];portConstraint=eastwest;" vertex="1" parent="2">
                    <mxGeometry y="26" width="200" height="26" as="geometry"/>
                </mxCell>
                <mxCell id="4" value="HOTEL    foreignkey" style="text;strokeColor=none;fillColor=none;align=left;verticalAlign=top;spacingLeft=4;spacingRight=4;overflow=hidden;rotatable=0;points=[[0,0.5],[1,0.5]];portConstraint=eastwest;" vertex="1" parent="2">
                    <mxGeometry y="52" width="200" height="26" as="geometry"/>
                </mxCell>
                <mxCell id="5" value="IMAGE    img" style="text;strokeColor=none;fillColor=none;align=left;verticalAlign=top;spacingLeft=4;spacingRight=4;overflow=hidden;rotatable=0;points=[[0,0.5],[1,0.5]];portConstraint=eastwest;" vertex="1" parent="2">
                    <mxGeometry y="78" width="200" height="26" as="geometry"/>
                </mxCell>
                <mxCell id="6" style="edgeStyle=none;html=1;exitX=0;exitY=0.5;exitDx=0;exitDy=0;entryX=0.983;entryY=0.038;entryDx=0;entryDy=0;entryPerimeter=0;" edge="1" parent="1" source="4" target="GEy-7IUFo_Hp36R-oKfD-13">
                    <mxGeometry relative="1" as="geometry">
                        <Array as="points">
                            <mxPoint x="610" y="665"/>
                            <mxPoint x="610" y="580"/>
                            <mxPoint x="830" y="580"/>
                            <mxPoint x="830" y="310"/>
                        </Array>
                    </mxGeometry>
                </mxCell>
            </root>
        </mxGraphModel>
    </diagram>
</mxfile>